<?xml version="1.0" encoding="utf-8"?>
<!-- Generator: Adobe Illustrator 18.1.0, SVG Export Plug-In . SVG Version: 6.00 Build 0)  -->
<svg version="1.1" id="Layer_1" xmlns:x="beatsmusic" xmlns:i="beatsmusic;" xmlns:graph="beatsmusic;"
	 xmlns="http://www.w3.org/2000/svg" xmlns:xlink="http://www.w3.org/1999/xlink" x="0px" y="0px" viewBox="0 0 465 465"
	 enable-background="new 0 0 465 465" xml:space="preserve">
<metadata>
	<sfw  xmlns="beatsmusic;">
		<slices></slices>
		<sliceSourceBounds  width="461.1" height="460" y="-462.5" x="1.9" bottomLeftOrigin="true"></sliceSourceBounds>
	</sfw>
</metadata>
<path fill="#FFFFFF" d="M227.3,2.5h11.6c42.5,1.2,84.7,14.3,120.2,37.7c38.4,25.2,69.1,62.1,86.6,104.6c16.2,38.9,21,82.4,14.5,124
	c-6.7,42.5-25.8,82.9-54.2,115.2c-24.7,28.2-56.4,50.3-91.5,63.5c-24.1,9.2-49.8,14.1-75.6,14.9h-13.6
	c-40.4-1.4-80.5-13.3-114.8-34.8c-35-21.8-64-53.1-82.9-89.7c-16-30.7-24.7-65.2-25.6-99.8v-11.4c0.9-35.9,10.3-71.6,27.5-103.1
	c20.1-37.6,51.2-69,87.9-90.5c0,59.4-0.1,118.8,0,178.2c0.6,25.3,2.4,51.7,13.6,74.9c18.3,36.9,58.7,61.2,99.7,61.3
	c20.1,0.5,40.2-4.5,57.7-14.3c22.7-12.5,40.9-32.9,50.8-56.9c9.6-23.1,11.2-49.5,4.6-73.6c-7.1-26.4-24-50-46.7-65.2
	c-18.4-12.5-40.5-19.5-62.7-19.6c-24-0.6-47.8,8.1-66.5,22.9c0-42.9,0.1-85.9,0-128.8C187.1,6,207.2,3.1,227.3,2.5"/>
<path fill="#FFFFFF" d="M203.7,170.9c6.1-2.9,13.8-2.2,19.3,1.8c18.6,12.9,37.3,25.9,56,38.8c5.3,3.8,11.6,7,14.2,13.4
	c3.8,8.1,0.5,18.3-6.8,23.2c-21.1,14.7-42.2,29.3-63.3,44c-6.6,4.9-16.6,4.8-23-0.4c-4.7-3.6-7.7-9.5-7.4-15.5c0-29.5,0-59.1,0-88.6
	C192.7,180.5,197.4,173.9,203.7,170.9"/>
</svg>
